<mxfile host="65bd71144e">
    <diagram id="zpL0F3I2Mvna_sNiWHkC" name="第 1 页">
        <mxGraphModel dx="512" dy="417" grid="1" gridSize="10" guides="1" tooltips="1" connect="1" arrows="1" fold="1" page="1" pageScale="1" pageWidth="827" pageHeight="1169" background="none" math="0" shadow="0">
            <root>
                <mxCell id="0"/>
                <mxCell id="1" parent="0"/>
                <mxCell id="132" value="" style="ellipse;whiteSpace=wrap;html=1;aspect=fixed;fontColor=#02A1F0;" vertex="1" parent="1">
                    <mxGeometry x="310" y="290" width="250" height="250" as="geometry"/>
                </mxCell>
                <mxCell id="135" value="主系统&lt;br style=&quot;font-size: 8px;&quot;&gt;mainProject" style="html=1;shadow=0;dashed=0;shape=mxgraph.bootstrap.rrect;rSize=5;strokeColor=none;strokeWidth=1;fillColor=#1CA5B8;fontColor=#FFFFFF;whiteSpace=wrap;align=center;verticalAlign=middle;spacingLeft=0;fontStyle=0;fontSize=8;spacing=5;" vertex="1" parent="1">
                    <mxGeometry x="400" y="400" width="70" height="30" as="geometry"/>
                </mxCell>
                <mxCell id="136" value="子系统 project A" style="html=1;shadow=0;dashed=0;shape=mxgraph.bootstrap.rrect;rSize=5;strokeColor=none;strokeWidth=1;fillColor=#33A64C;fontColor=#FFFFFF;whiteSpace=wrap;align=center;verticalAlign=middle;spacingLeft=0;fontStyle=0;fontSize=8;spacing=5;" vertex="1" parent="1">
                    <mxGeometry x="520" y="400" width="70" height="20" as="geometry"/>
                </mxCell>
                <mxCell id="138" value="子系统 project B" style="html=1;shadow=0;dashed=0;shape=mxgraph.bootstrap.rrect;rSize=5;strokeColor=none;strokeWidth=1;fillColor=#33A64C;fontColor=#FFFFFF;whiteSpace=wrap;align=center;verticalAlign=middle;spacingLeft=0;fontStyle=0;fontSize=8;spacing=5;" vertex="1" parent="1">
                    <mxGeometry x="400" y="530" width="70" height="20" as="geometry"/>
                </mxCell>
                <mxCell id="139" value="子系统 project C" style="html=1;shadow=0;dashed=0;shape=mxgraph.bootstrap.rrect;rSize=5;strokeColor=none;strokeWidth=1;fillColor=#33A64C;fontColor=#FFFFFF;whiteSpace=wrap;align=center;verticalAlign=middle;spacingLeft=0;fontStyle=0;fontSize=8;spacing=5;" vertex="1" parent="1">
                    <mxGeometry x="280" y="405" width="70" height="20" as="geometry"/>
                </mxCell>
                <mxCell id="140" value="子系统 project D" style="html=1;shadow=0;dashed=0;shape=mxgraph.bootstrap.rrect;rSize=5;strokeColor=none;strokeWidth=1;fillColor=#33A64C;fontColor=#FFFFFF;whiteSpace=wrap;align=center;verticalAlign=middle;spacingLeft=0;fontStyle=0;fontSize=8;spacing=5;" vertex="1" parent="1">
                    <mxGeometry x="400" y="280" width="70" height="20" as="geometry"/>
                </mxCell>
                <mxCell id="141" value="" style="edgeStyle=elbowEdgeStyle;elbow=horizontal;endArrow=classic;html=1;fontSize=8;fontColor=#ffffff;" edge="1" parent="1" source="132" target="132">
                    <mxGeometry width="50" height="50" relative="1" as="geometry">
                        <mxPoint x="450" y="480" as="sourcePoint"/>
                        <mxPoint x="500" y="430" as="targetPoint"/>
                        <Array as="points">
                            <mxPoint x="500" y="470"/>
                            <mxPoint x="490" y="430"/>
                        </Array>
                    </mxGeometry>
                </mxCell>
            </root>
        </mxGraphModel>
    </diagram>
</mxfile>